<mxfile host="app.diagrams.net" modified="2023-05-04T07:53:00.267Z" agent="Mozilla/5.0 (Macintosh; Intel Mac OS X 10_15_7) AppleWebKit/537.36 (KHTML, like Gecko) Chrome/112.0.0.0 Safari/537.36" etag="R5MUWqqPHTN3DHH5QpvR" version="21.2.3" type="github">
  <diagram name="Page-1" id="6Ehfkf6eczJirk7JPsJ1">
    <mxGraphModel dx="968" dy="692" grid="1" gridSize="10" guides="1" tooltips="1" connect="1" arrows="1" fold="1" page="1" pageScale="1" pageWidth="850" pageHeight="1100" math="0" shadow="0">
      <root>
        <mxCell id="0" />
        <mxCell id="1" parent="0" />
        <mxCell id="5ZuNcJbyHzWn26X6fCkB-1" value="OutputIterator" style="rounded=0;whiteSpace=wrap;html=1;fillColor=#dae8fc;strokeColor=#6c8ebf;" vertex="1" parent="1">
          <mxGeometry x="120" y="120" width="130" height="60" as="geometry" />
        </mxCell>
        <mxCell id="5ZuNcJbyHzWn26X6fCkB-2" value="InputIterator" style="rounded=0;whiteSpace=wrap;html=1;fillColor=#ffe6cc;strokeColor=#d79b00;" vertex="1" parent="1">
          <mxGeometry x="320" y="120" width="130" height="60" as="geometry" />
        </mxCell>
        <mxCell id="5ZuNcJbyHzWn26X6fCkB-3" value="Forwardterator" style="rounded=0;whiteSpace=wrap;html=1;fillColor=#fff2cc;strokeColor=#d6b656;" vertex="1" parent="1">
          <mxGeometry x="320" y="240" width="130" height="60" as="geometry" />
        </mxCell>
        <mxCell id="5ZuNcJbyHzWn26X6fCkB-4" value="Bidirectionalterator" style="rounded=0;whiteSpace=wrap;html=1;fillColor=#f8cecc;strokeColor=#b85450;" vertex="1" parent="1">
          <mxGeometry x="320" y="360" width="130" height="60" as="geometry" />
        </mxCell>
        <mxCell id="5ZuNcJbyHzWn26X6fCkB-5" value="RandomAccessIterator" style="rounded=0;whiteSpace=wrap;html=1;fillColor=#e1d5e7;strokeColor=#9673a6;" vertex="1" parent="1">
          <mxGeometry x="320" y="480" width="130" height="60" as="geometry" />
        </mxCell>
        <mxCell id="5ZuNcJbyHzWn26X6fCkB-6" value="" style="endArrow=block;endFill=0;endSize=12;html=1;rounded=0;entryX=0.5;entryY=1;entryDx=0;entryDy=0;" edge="1" parent="1" source="5ZuNcJbyHzWn26X6fCkB-3" target="5ZuNcJbyHzWn26X6fCkB-2">
          <mxGeometry width="160" relative="1" as="geometry">
            <mxPoint x="340" y="360" as="sourcePoint" />
            <mxPoint x="500" y="360" as="targetPoint" />
          </mxGeometry>
        </mxCell>
        <mxCell id="5ZuNcJbyHzWn26X6fCkB-7" value="" style="endArrow=block;endFill=0;endSize=12;html=1;rounded=0;entryX=0.5;entryY=1;entryDx=0;entryDy=0;" edge="1" parent="1" source="5ZuNcJbyHzWn26X6fCkB-4" target="5ZuNcJbyHzWn26X6fCkB-3">
          <mxGeometry width="160" relative="1" as="geometry">
            <mxPoint x="390" y="250" as="sourcePoint" />
            <mxPoint x="390" y="190" as="targetPoint" />
          </mxGeometry>
        </mxCell>
        <mxCell id="5ZuNcJbyHzWn26X6fCkB-8" value="" style="endArrow=block;endFill=0;endSize=12;html=1;rounded=0;exitX=0.5;exitY=0;exitDx=0;exitDy=0;entryX=0.5;entryY=1;entryDx=0;entryDy=0;" edge="1" parent="1" source="5ZuNcJbyHzWn26X6fCkB-5" target="5ZuNcJbyHzWn26X6fCkB-4">
          <mxGeometry width="160" relative="1" as="geometry">
            <mxPoint x="400" y="260" as="sourcePoint" />
            <mxPoint x="380" y="410" as="targetPoint" />
          </mxGeometry>
        </mxCell>
      </root>
    </mxGraphModel>
  </diagram>
</mxfile>
